<?xml version="1.0" encoding="utf-8"?>
<svg xmlns="http://www.w3.org/2000/svg" viewBox="-47.511 -187.956 897.911 817.875" xmlns:bx="https://boxy-svg.com" width="897.911px" height="817.875px"><defs><linearGradient id="color-0" bx:pinned="true" gradientUnits="userSpaceOnUse" gradientTransform="matrix(1.753732, 0, 0, 1.59742, -310.85158, -176.471438)"><stop style="stop-color: rgb(187, 0, 0);"/></linearGradient><linearGradient id="color-1" bx:pinned="true" gradientUnits="userSpaceOnUse"><stop style="stop-color: rgb(255, 255, 255);"/></linearGradient><path id="path-0" d="M 329.872 384.185 C 343.331 369.928 360.297 368.022 373.802 362.62 C 384.672 358.751 399.886 359.699 405.751 353.834 C 415.575 353.834 423.524 352.435 431.31 349.84 C 443.055 347.303 454.334 351.146 464.856 349.042 C 477.979 348.243 487.907 351.438 498.403 351.438 C 510.865 351.438 514.134 356.149 521.566 358.626 C 539.227 363.901 551.977 371.406 565.495 371.406 C 574.918 372.204 583.32 376.997 590.256 376.997 C 595.192 380.336 600.877 380.43 604.633 384.185 C 610.489 385.783 614.774 392.173 619.808 392.173 L 620.607 392.173 C 621.938 392.173 623.269 392.173 624.601 392.173" style="fill: none;"/><style bx:fonts="Akaya Kanadaka" bx:pinned="true">@import url(https://fonts.googleapis.com/css2?family=Akaya+Kanadaka%3Aital%2Cwght%400%2C400&amp;display=swap);</style><bx:export><bx:file format="svg" path="Sem título.svg"/></bx:export></defs><rect x="-47.511" y="-187.96" width="897.911" height="817.879" style="fill: url(&quot;#color-0&quot;); stroke: rgb(0, 0, 0);"/><text style="fill: rgb(255, 255, 255); font-family: &quot;Akaya Kanadaka&quot;; font-size: 28px; white-space: pre;" transform="matrix(5.5233, 0, 0, 14.076384, -969.665466, -439.207123)" x="195.687" y="53.514">NL</text><text style="fill: url(&quot;#color-1&quot;); font-family: &quot;Akaya Kanadaka&quot;; font-size: 28px; white-space: pre;" transform="matrix(2.995451, 0, 0, 3.984888, -662.794983, -1132.975098)" x="335.463" y="382.588">Neves</text></svg>