<?xml version="1.0" encoding="utf-8"?>
<svg xmlns="http://www.w3.org/2000/svg" viewBox="0 0 598.87 146.16" xmlns:bx="https://boxy-svg.com">
  <rect width="598.87" height="146.16" style="stroke: rgb(0, 0, 0); fill: rgb(187, 0, 0);"/>
  <text style="fill: rgb(255, 255, 255); font-family: Arbutus; font-size: 64px; white-space: pre;" x="37.666" y="95.312" transform="matrix(0.926439, -0.000822, 0, 1, -22.652996, -22.386322)">NL_NEVES</text>
  <defs>
    <style bx:fonts="Arbutus">@import url(https://fonts.googleapis.com/css2?family=Arbutus%3Aital%2Cwght%400%2C400&amp;display=swap);</style>
  </defs>
  <path d="M 535.329 47.29 L 538.6 63.225 L 551.7 52.056 L 543.891 66.67 L 561.818 64.532 L 545.913 72.243 L 561.818 79.954 L 543.891 77.816 L 551.7 92.43 L 538.6 81.261 L 535.329 97.196 L 532.058 81.261 L 518.958 92.43 L 526.767 77.816 L 508.84 79.954 L 524.745 72.243 L 508.84 64.532 L 526.767 66.67 L 518.958 52.056 L 532.058 63.225 Z" bx:shape="star 535.329 72.243 27.852 24.953 0.38 10 1@90f5fe3a" style="stroke: rgb(0, 0, 0); fill: rgb(255, 255, 255);"/>
  <path d="M 501.917 20.924 L 504.246 35.356 L 513.577 25.24 L 508.015 38.475 L 520.783 36.54 L 509.455 43.523 L 520.783 50.506 L 508.015 48.571 L 513.577 61.806 L 504.246 51.69 L 501.917 66.122 L 499.588 51.69 L 490.257 61.806 L 495.819 48.571 L 483.051 50.506 L 494.379 43.523 L 483.051 36.54 L 495.819 38.475 L 490.257 25.24 L 499.588 35.356 Z" bx:shape="star 501.917 43.523 19.837 22.599 0.38 10 1@372ed329" style="stroke: rgb(0, 0, 0); fill: rgb(255, 255, 255);"/>
  <path d="M 495.945 66.122 L 497.537 76.044 L 503.914 69.089 L 500.113 78.189 L 508.839 76.858 L 501.097 81.659 L 508.839 86.46 L 500.113 85.129 L 503.914 94.229 L 497.537 87.274 L 495.945 97.196 L 494.353 87.274 L 487.976 94.229 L 491.777 85.129 L 483.051 86.46 L 490.793 81.659 L 483.051 76.858 L 491.777 78.189 L 487.976 69.089 L 494.353 76.044 Z" bx:shape="star 495.945 81.659 13.558 15.537 0.38 10 1@72e59627" style="stroke: rgb(0, 0, 0); fill: rgb(255, 255, 255);"/>
</svg>